<?xml version="1.0" encoding="UTF-8" standalone="no"?>
<svg
   xmlns:dc="http://purl.org/dc/elements/1.1/"
   xmlns:cc="http://creativecommons.org/ns#"
   xmlns:rdf="http://www.w3.org/1999/02/22-rdf-syntax-ns#"
   xmlns:svg="http://www.w3.org/2000/svg"
   xmlns="http://www.w3.org/2000/svg"
   id="Layer_1"
   data-name="Layer 1"
   viewBox="0 0 24 24"
   version="1.1"
   width="24"
   height="24"
  <title
     id="title3781">Cloud Foundry Icon</title>
  <defs
     id="defs3751">
    <style
       id="style3749">.cls-1{fill:#000;}</style>
  </defs>
  <path
     class="cls-1"
     d="m 14.626989,9.7442452 c 0.724861,-0.590216 1.173263,-1.426464 1.16494,-2.35256 -0.01523,-1.763775 -1.681668,-3.184781 -3.722183,-3.184781 -2.040515,0 -3.7069728,1.421006 -3.7224708,3.184781 -0.008,0.925809 0.440079,1.762344 1.16494,2.35256 0.8968128,0.7303138 1.6317218,2.2073068 1.6747818,3.8200818 0.04797,1.789893 -0.07435,3.861411 -0.149563,4.915252 -0.958822,0.136364 -1.6322958,0.456452 -1.6322958,0.829929 0,0.496927 1.1927858,1.069921 2.6640338,1.069921 1.471248,0 2.664032,-0.574143 2.664032,-1.069921 0,-0.373189 -0.673472,-0.693565 -1.632295,-0.829929 -0.07521,-1.054129 -0.197219,-3.125359 -0.149563,-4.915252 0.04396,-1.612775 0.778825,-3.089768 1.675643,-3.8200818 z"
     id="path3755"
     inkscape:connector-curvature="0"
     style="fill:#000000;stroke-width:0.02870728" />
  <path
     class="cls-1"
     d="m 19.135751,20.158669 a 2.2650033,2.2650033 0 0 1 0.441234,-0.128608 2.7943654,2.7943654 0 0 1 0.510127,-0.06172 c 0,0 -0.0084,-0.05745 -0.01951,-0.143538 -0.0053,-0.0844 -0.04509,-0.196357 -0.08325,-0.307456 -0.01951,-0.05458 -0.03901,-0.109088 -0.05738,-0.159323 -0.02271,-0.0505 -0.05137,-0.09674 -0.07206,-0.13665 l -0.07148,-0.129756 A 4.5300067,4.5300067 0 0 1 19.256937,18.972191 4.1237989,4.1237989 0 0 1 18.781834,18.808559 C 18.512555,18.690286 18.259362,18.557657 18.125871,18.40953 17.964538,18.268578 17.934677,18.127913 17.939848,18.000161 a 0.35022866,0.35022866 0 0 1 0.08612,-0.179992 0.56237535,0.56237535 0 0 1 0.191194,-0.148988 c 0,0 -0.06487,-0.03587 -0.15933,-0.08957 -0.04823,-0.02585 -0.100764,-0.05745 -0.162482,-0.08842 -0.06173,-0.031 -0.132629,-0.06373 -0.200948,-0.09559 -0.133777,-0.06373 -0.267268,-0.127465 -0.379515,-0.169664 l -0.177981,-0.07205 a 3.5100375,3.5100375 0 0 1 -0.413384,0.02873 c -0.148134,0.0033 -0.299133,0 -0.446111,-0.01236 -0.289085,-0.02465 -0.583048,-0.06486 -0.837109,-0.139804 a 2.0855829,2.0855829 0 0 1 -0.341325,-0.118272 1.5823446,1.5823446 0 0 1 -0.255211,-0.134633 c -0.13349,-0.09761 -0.225062,-0.196358 -0.2242,-0.296261 l -0.200667,-0.03273 c -0.125447,-0.01951 -0.392716,-0.05538 -0.562373,-0.07809 -0.0033,0.02873 -0.02151,0.05538 -0.02873,0.102768 l -0.04309,0.207841 c -0.08841,0.415395 0.152149,0.83711 0.560369,0.955383 0.999585,0.29109 1.755163,0.770214 1.973339,1.358426 0.441227,1.18963 -1.411828,2.353996 -4.229444,2.353996 -2.8176178,0 -4.6698108,-1.165515 -4.2305938,-2.355145 0.213012,-0.574143 0.938729,-1.043795 1.9024348,-1.336896 a 0.86322748,0.86322748 0 0 0 0.588213,-1.004756 l -0.05912,-0.282479 c -0.111954,0.01349 -0.242572,0.02872 -0.3763494,0.04623 -0.1676546,0.01837 -0.3269774,0.04823 -0.4492724,0.06774 -0.122295,0.01951 -0.204681,0.03387 -0.204681,0.03387 0.0084,0.09675 -0.06059,0.20555 -0.192337,0.299133 a 1.6788009,1.6788009 0 0 1 -0.238563,0.140953 2.8934055,2.8934055 0 0 1 -0.32898,0.123443 3.2864079,3.2864079 0 0 1 -0.4019,0.09243 3.9638994,3.9638994 0 0 1 -0.432911,0.05745 c -0.299126,0.02351 -0.599408,0.02873 -0.872127,-0.004 l -0.04937,0.01951 c -0.02872,0.01349 -0.07808,0.03073 -0.126603,0.05458 -0.09961,0.04736 -0.234535,0.11196 -0.370037,0.176838 -0.135494,0.06487 -0.252906,0.138942 -0.349648,0.192343 l -0.114833,0.06487 c -0.02559,0.0175 -0.04021,0.02672 -0.04021,0.02672 0.188035,0.08612 0.293101,0.205543 0.313482,0.330998 0.04736,0.132628 -0.0175,0.270421 -0.139803,0.420558 a 1.7956395,1.7956395 0 0 1 -0.264396,0.217888 2.3798324,2.3798324 0 0 1 -0.37836,0.200954 4.0985365,4.0985365 0 0 1 -1.000448,0.309461 0.63730132,0.63730132 0 0 0 -0.05745,0.133777 c -0.02872,0.08125 -0.066889,0.191188 -0.1059284,0.303435 -0.016367,0.111099 -0.031865,0.22507 -0.044223,0.31262 a 0.49577449,0.49577449 0 0 0 -0.00835,0.146124 c 0.3895554,0.004 0.7363384,0.07005 0.9952764,0.173678 0.301424,0.09962 0.483433,0.248891 0.624098,0.430613 0.111099,0.196358 0.155308,0.401901 0.05745,0.639596 -0.0689,0.231382 -0.25837,0.489457 -0.566682,0.723993 l 0.04736,0.04108 c 0.03387,0.02465 0.08326,0.05972 0.143538,0.101906 0.122294,0.08441 0.276453,0.20354 0.457594,0.311478 0.191194,0.104779 0.385541,0.210707 0.532519,0.291952 0.07291,0.04102 0.146984,0.06689 0.193198,0.08842 0.04623,0.02151 0.07607,0.033 0.07607,0.033 0.434921,-0.186024 0.901701,-0.281618 1.368767,-0.330998 a 4.0086828,4.0086828 0 0 1 0.681795,-0.01637 c 0.223058,0.01122 0.450419,0.02872 0.663137,0.07923 0.210714,0.05538 0.4165448,0.10794 0.5965434,0.188322 a 3.429083,3.429083 0 0 1 0.4997934,0.282766 c 0.307449,0.209852 0.544002,0.505825 0.645621,0.817584 l 0.395876,0.0155 c 0.238557,0.006 0.556347,0.02873 0.872989,0.01122 0.31578,-0.01035 0.634432,-0.0155 0.869829,-0.03073 0.232531,-0.02271 0.387545,-0.03701 0.387545,-0.03701 a 1.1982413,1.1982413 0 0 1 0.20354,-0.454435 1.4589033,1.4589033 0 0 1 0.165642,-0.193204 1.9357309,1.9357309 0 0 1 0.665148,-0.471944 2.7478596,2.7478596 0 0 1 0.571845,-0.205549 c 0.217888,-0.04309 0.422569,-0.08612 0.644766,-0.101907 0.222191,-0.01577 0.457594,-0.0072 0.678642,0.002 a 4.8047353,4.8047353 0 0 1 1.384546,0.293963 l 0.240567,-0.133778 c 0.137799,-0.08239 0.336161,-0.179999 0.488029,-0.301424 0.155301,-0.114833 0.318646,-0.224208 0.417399,-0.31578 0.09875,-0.09158 0.15933,-0.150144 0.15933,-0.150144 -0.323823,-0.223053 -0.510134,-0.462757 -0.629269,-0.699304 a 0.76705816,0.76705816 0 0 1 -0.07406,-0.326975 0.46965088,0.46965088 0 0 1 0.07406,-0.299133 c 0.08441,-0.189183 0.300283,-0.328986 0.545439,-0.440085"
     id="path3757"
     inkscape:connector-curvature="0"
     style="fill:#000000;stroke-width:0.02870728" />
  <path
     class="cls-1"
     d="m 9.6129732,14.311861 c 0,0 0.4185558,-1.585212 -1.399188,-3.630035 l -0.06032,-0.06313 a 5.0366899,5.0366899 0 0 1 -1.18762,-3.2439198 c 0,-2.778864 2.263286,-5.0395585 5.0453048,-5.0395585 h 0.115983 c 2.782017,0 5.045583,2.2609815 5.045583,5.0395585 a 5.0358287,5.0358287 0 0 1 -1.187045,3.2419098 c -0.0089,0.01035 -0.02872,0.0316 -0.06059,0.06259 -1.613923,1.615928 -1.400056,3.631466 -1.400056,3.631466 2.946804,-1.015952 4.937652,-3.786774 4.954593,-6.8951988 0.02238,-3.8849529 -3.114452,-7.19719786 -6.990799,-7.38322146 -0.04823,-0.002 -0.09617,-0.00334 -0.143531,-0.00334 -0.05738,0 -0.276741,0.00401 -0.275592,0.00401 -0.006,0 -0.216452,-0.00401 -0.27473,-0.00401 -0.04796,0 -0.09588,0 -0.143537,0.00334 -3.8774918,0.1860236 -7.0140488,3.49826856 -6.9928058,7.38437046 0.01637,3.1084248 2.007501,5.8792468 4.954299,6.8951988 z"
     id="path3759"
     inkscape:connector-curvature="0"
     style="fill:#000000;stroke-width:0.02870728" />
  <path
     class="cls-1"
     d="m 14.626989,9.7442452 c 0.724861,-0.590216 1.173263,-1.426464 1.16494,-2.35256 -0.01523,-1.763775 -1.681668,-3.184781 -3.722183,-3.184781 -2.040515,0 -3.7069728,1.421006 -3.7224708,3.184781 -0.008,0.925809 0.440079,1.762344 1.16494,2.35256 0.8968128,0.7303138 1.6317218,2.2073068 1.6747818,3.8200818 0.04797,1.789893 -0.07435,3.861411 -0.149563,4.915252 -0.958822,0.136364 -1.6322958,0.456452 -1.6322958,0.829929 0,0.496927 1.1927858,1.069921 2.6640338,1.069921 1.471248,0 2.664032,-0.574143 2.664032,-1.069921 0,-0.373189 -0.673472,-0.693565 -1.632295,-0.829929 -0.07521,-1.054129 -0.197219,-3.125359 -0.149563,-4.915252 0.04396,-1.612775 0.778825,-3.089768 1.675643,-3.8200818 z"
     id="path3761"
     inkscape:connector-curvature="0"
     style="fill:#000000;stroke-width:0.02870728" />
  <path
     class="cls-1"
     d="m 14.626989,9.7442452 c 0.724861,-0.590216 1.173263,-1.426464 1.16494,-2.35256 -0.01523,-1.763775 -1.681668,-3.184781 -3.722183,-3.184781 -2.040515,0 -3.7069728,1.421006 -3.7224708,3.184781 -0.008,0.925809 0.440079,1.762344 1.16494,2.35256 0.8968128,0.7303138 1.6317218,2.2073068 1.6747818,3.8200818 0.04797,1.789893 -0.07435,3.861411 -0.149563,4.915252 -0.958822,0.136364 -1.6322958,0.456452 -1.6322958,0.829929 0,0.496927 1.1927858,1.069921 2.6640338,1.069921 1.471248,0 2.664032,-0.574143 2.664032,-1.069921 0,-0.373189 -0.673472,-0.693565 -1.632295,-0.829929 -0.07521,-1.054129 -0.197219,-3.125359 -0.149563,-4.915252 0.04396,-1.612775 0.778825,-3.089768 1.675643,-3.8200818 z"
     id="path3763"
     inkscape:connector-curvature="0"
     style="fill:#000000;stroke-width:0.02870728" />
</svg>
