<?xml version="1.0" encoding="UTF-8" standalone="no"?>
<svg
   xmlns:dc="http://purl.org/dc/elements/1.1/"
   xmlns:cc="http://creativecommons.org/ns#"
   xmlns:rdf="http://www.w3.org/1999/02/22-rdf-syntax-ns#"
   xmlns:svg="http://www.w3.org/2000/svg"
   xmlns="http://www.w3.org/2000/svg"
   xmlns:sodipodi="http://sodipodi.sourceforge.net/DTD/sodipodi-0.dtd"
   xmlns:inkscape="http://www.inkscape.org/namespaces/inkscape"
   id="Layer_1"
   data-name="Layer 1"
   viewBox="0 0 836.00003 836"
   version="1.1"
   sodipodi:docname="cloud_foundry.svg"
   width="836"
   height="836"
   inkscape:version="0.92.1 r15371">
  <metadata
     id="metadata3768">
    <rdf:RDF>
      <cc:Work
         rdf:about="">
        <dc:format>image/svg+xml</dc:format>
        <dc:type
           rdf:resource="http://purl.org/dc/dcmitype/StillImage" />
        <dc:title>CF_Icon_4-colour</dc:title>
      </cc:Work>
    </rdf:RDF>
  </metadata>
  <sodipodi:namedview
     pagecolor="#ffffff"
     bordercolor="#666666"
     borderopacity="1"
     objecttolerance="10"
     gridtolerance="10"
     guidetolerance="10"
     inkscape:pageopacity="0"
     inkscape:pageshadow="2"
     inkscape:window-width="1542"
     inkscape:window-height="1078"
     id="namedview3766"
     showgrid="false"
     inkscape:zoom="0.76095916"
     inkscape:cx="279.26999"
     inkscape:cy="342.1745"
     inkscape:window-x="2270"
     inkscape:window-y="387"
     inkscape:window-maximized="0"
     inkscape:current-layer="Layer_1" />
  <defs
     id="defs3751">
    <style
       id="style3749">.cls-1{fill:#000;}</style>
  </defs>
  <title
     id="title3753">CF_Icon_4-colour</title>
  <path
     class="cls-1"
     d="m 506.35,338.36 c 25.25,-20.56 40.87,-49.69 40.58,-81.95 -0.53,-61.44 -58.58,-110.94 -129.66,-110.94 -71.08,0 -129.13,49.5 -129.67,110.94 -0.28,32.25 15.33,61.39 40.58,81.95 31.24,25.44 56.84,76.89 58.34,133.07 1.67,62.35 -2.59,134.51 -5.21,171.22 -33.4,4.75 -56.86,15.9 -56.86,28.91 0,17.31 41.55,37.27 92.8,37.27 51.25,0 92.8,-20 92.8,-37.27 0,-13 -23.46,-24.16 -56.86,-28.91 -2.62,-36.72 -6.87,-108.87 -5.21,-171.22 1.53,-56.18 27.13,-107.63 58.37,-133.07 z"
     id="path3755"
     inkscape:connector-curvature="0"
     style="fill:#000000" />
  <path
     class="cls-1"
     d="m 663.41,701.14 a 78.9,78.9 0 0 1 15.37,-4.48 97.34,97.34 0 0 1 17.77,-2.15 c 0,0 -0.29,-2 -0.68,-5 -0.18,-2.94 -1.57,-6.84 -2.9,-10.71 -0.68,-1.9 -1.36,-3.8 -2,-5.55 -0.79,-1.76 -1.79,-3.37 -2.51,-4.76 l -2.49,-4.52 a 157.8,157.8 0 0 1 -18.34,-4.16 143.65,143.65 0 0 1 -16.55,-5.7 c -9.38,-4.12 -18.2,-8.74 -22.85,-13.9 -5.62,-4.91 -6.66,-9.81 -6.48,-14.26 a 12.2,12.2 0 0 1 3,-6.27 19.59,19.59 0 0 1 6.66,-5.19 c 0,0 -2.26,-1.25 -5.55,-3.12 -1.68,-0.9 -3.51,-2 -5.66,-3.08 -2.15,-1.08 -4.62,-2.22 -7,-3.33 -4.66,-2.22 -9.31,-4.44 -13.22,-5.91 l -6.2,-2.51 a 122.27,122.27 0 0 1 -14.4,1 c -5.16,0.11 -10.42,0 -15.54,-0.43 -10.07,-0.86 -20.31,-2.26 -29.16,-4.87 a 72.65,72.65 0 0 1 -11.89,-4.12 55.12,55.12 0 0 1 -8.89,-4.69 c -4.65,-3.4 -7.84,-6.84 -7.81,-10.32 l -6.99,-1.14 c -4.37,-0.68 -13.68,-1.93 -19.59,-2.72 -0.11,1 -0.75,1.93 -1,3.58 l -1.5,7.24 c -3.08,14.47 5.3,29.16 19.52,33.28 34.82,10.14 61.14,26.83 68.74,47.32 15.37,41.44 -49.18,82 -147.33,82 -98.15,0 -162.67,-40.6 -147.37,-82.04 7.42,-20 32.7,-36.36 66.27,-46.57 a 30.07,30.07 0 0 0 20.49,-35 l -2.06,-9.84 c -3.9,0.47 -8.45,1 -13.11,1.61 -5.84,0.64 -11.39,1.68 -15.65,2.36 -4.26,0.68 -7.13,1.18 -7.13,1.18 0.29,3.37 -2.11,7.16 -6.7,10.42 a 58.48,58.48 0 0 1 -8.31,4.91 100.79,100.79 0 0 1 -11.46,4.3 114.48,114.48 0 0 1 -14,3.22 138.08,138.08 0 0 1 -15.08,2 c -10.42,0.82 -20.88,1 -30.38,-0.14 l -1.72,0.68 c -1,0.47 -2.72,1.07 -4.41,1.9 -3.47,1.65 -8.17,3.9 -12.89,6.16 -4.72,2.26 -8.81,4.84 -12.18,6.7 l -4,2.26 c -0.89,0.61 -1.4,0.93 -1.4,0.93 6.55,3 10.21,7.16 10.92,11.53 1.65,4.62 -0.61,9.42 -4.87,14.65 a 62.55,62.55 0 0 1 -9.21,7.59 82.9,82.9 0 0 1 -13.18,7 142.77,142.77 0 0 1 -34.85,10.78 22.2,22.2 0 0 0 -2,4.66 c -1,2.83 -2.33,6.66 -3.69,10.57 -0.57,3.87 -1.11,7.84 -1.54,10.89 a 17.27,17.27 0 0 0 -0.29,5.09 c 13.57,0.14 25.65,2.44 34.67,6.05 10.5,3.47 16.84,8.67 21.74,15 3.87,6.84 5.41,14 2,22.28 -2.4,8.06 -9,17.05 -19.74,25.22 l 1.65,1.43 c 1.18,0.86 2.9,2.08 5,3.55 4.26,2.94 9.63,7.09 15.94,10.85 6.66,3.65 13.43,7.34 18.55,10.17 2.54,1.43 5.12,2.33 6.73,3.08 1.61,0.75 2.65,1.15 2.65,1.15 15.15,-6.48 31.41,-9.81 47.68,-11.53 a 139.64,139.64 0 0 1 23.75,-0.57 c 7.77,0.39 15.69,1 23.1,2.76 7.34,1.93 14.51,3.76 20.78,6.56 a 119.45,119.45 0 0 1 17.41,9.85 c 10.71,7.31 18.95,17.62 22.49,28.48 l 13.79,0.54 c 8.31,0.22 19.38,1 30.41,0.39 11,-0.36 22.1,-0.54 30.3,-1.07 8.1,-0.79 13.5,-1.29 13.5,-1.29 a 41.74,41.74 0 0 1 7.09,-15.83 50.82,50.82 0 0 1 5.77,-6.73 67.43,67.43 0 0 1 23.17,-16.44 95.72,95.72 0 0 1 19.92,-7.16 c 7.59,-1.5 14.72,-3 22.46,-3.55 7.74,-0.55 15.94,-0.25 23.64,0.07 a 167.37,167.37 0 0 1 48.23,10.24 l 8.38,-4.66 c 4.8,-2.87 11.71,-6.27 17,-10.5 5.41,-4 11.1,-7.81 14.54,-11 3.44,-3.19 5.55,-5.23 5.55,-5.23 -11.28,-7.77 -17.77,-16.12 -21.92,-24.36 a 26.72,26.72 0 0 1 -2.58,-11.39 16.36,16.36 0 0 1 2.58,-10.42 c 2.94,-6.59 10.46,-11.46 19,-15.33"
     id="path3757"
     inkscape:connector-curvature="0"
     style="fill:#000000" />
  <path
     class="cls-1"
     d="m 331.69,497.47 c 0,0 14.58,-55.22 -48.74,-126.45 l -2.1,-2.2 a 175.45,175.45 0 0 1 -41.37,-113 c 0,-96.8 78.84,-175.549998 175.75,-175.549998 h 4.04 c 96.91,0 175.76,78.759998 175.76,175.549998 a 175.42,175.42 0 0 1 -41.35,112.93 c -0.31,0.36 -1,1.1 -2.11,2.18 -56.22,56.29 -48.77,126.5 -48.77,126.5 C 605.45,462.04 674.8,365.52 675.39,257.24 676.17,121.91 566.9,6.5300024 431.87,0.0500024 c -1.68,-0.08 -3.35,-0.11 -5,-0.11 -2,0 -9.64,0.15 -9.6,0.15 -0.22,0 -7.54,-0.15 -9.57,-0.15 -1.67,0 -3.34,0 -5,0.11 C 267.63,6.5300024 158.37,121.91 159.11,257.28 c 0.57,108.28 69.93,204.8 172.58,240.19 z"
     id="path3759"
     inkscape:connector-curvature="0"
     style="fill:#000000" />
  <path
     class="cls-1"
     d="m 506.35,338.36 c 25.25,-20.56 40.87,-49.69 40.58,-81.95 -0.53,-61.44 -58.58,-110.94 -129.66,-110.94 -71.08,0 -129.13,49.5 -129.67,110.94 -0.28,32.25 15.33,61.39 40.58,81.95 31.24,25.44 56.84,76.89 58.34,133.07 1.67,62.35 -2.59,134.51 -5.21,171.22 -33.4,4.75 -56.86,15.9 -56.86,28.91 0,17.31 41.55,37.27 92.8,37.27 51.25,0 92.8,-20 92.8,-37.27 0,-13 -23.46,-24.16 -56.86,-28.91 -2.62,-36.72 -6.87,-108.87 -5.21,-171.22 1.53,-56.18 27.13,-107.63 58.37,-133.07 z"
     id="path3761"
     inkscape:connector-curvature="0"
     style="fill:#000000" />
  <path
     class="cls-1"
     d="m 506.35,338.36 c 25.25,-20.56 40.87,-49.69 40.58,-81.95 -0.53,-61.44 -58.58,-110.94 -129.66,-110.94 -71.08,0 -129.13,49.5 -129.67,110.94 -0.28,32.25 15.33,61.39 40.58,81.95 31.24,25.44 56.84,76.89 58.34,133.07 1.67,62.35 -2.59,134.51 -5.21,171.22 -33.4,4.75 -56.86,15.9 -56.86,28.91 0,17.31 41.55,37.27 92.8,37.27 51.25,0 92.8,-20 92.8,-37.27 0,-13 -23.46,-24.16 -56.86,-28.91 -2.62,-36.72 -6.87,-108.87 -5.21,-171.22 1.53,-56.18 27.13,-107.63 58.37,-133.07 z"
     id="path3763"
     inkscape:connector-curvature="0"
     style="fill:#000000" />
</svg>
