<?xml version="1.0" encoding="UTF-8"?>
<!-- Created with EazyDraw for Mac ( http://www.eazydraw.com/ ) -->

<svg
    version="1.1"
    xmlns:dc="http://purl.org/dc/elements/1.1/"
    xmlns:cc="http://creativecommons.org/ns#"
    xmlns:rdf="http://www.w3.org/1999/02/22-rdf-syntax-ns#"
    xmlns:svg="http://www.w3.org/2000/svg"
    xmlns:xlink="http://www.w3.org/1999/xlink"
    xmlns="http://www.w3.org/2000/svg"
    width="551.012281658"
    height="581.085217846"
    viewBox="0, 0, 551.012281658, 581.085217846"
    preserveAspectRatio="none"
    id="svg2">
   <defs
       id="defs_8386A550"/>
   <metadata
       id="metadata7">
      <rdf:RDF>
         <cc:Work
             rdf:about="">
            <dc:format>image/svg+xml</dc:format>
            <dc:type rdf:resource="http://purl.org/dc/dcmitype/StillImage"/>
            <dc:title></dc:title>
         </cc:Work>
      </rdf:RDF>
   </metadata>
   <g
       id="layer_Paper"
       style="fill:#000000;fill-opacity:1;stroke:#000000;stroke-opacity:1;fill-rule:nonzero;stroke-linecap:square;stroke-linejoin:miter;stroke-width:1;stroke-miterlimit:10">
      <g
          id="485CED10">
         <path
             style="fill:none;stroke-width:26.1746599001;stroke-miterlimit:1"
             id="145428FF"
             d="M124.182773884,404.203596056 C197.009686458,506.12705989 323.362767715,516.286967756 406.400268759,426.896375517 C412.423697482,420.412119828 418.124216496,413.489426037 423.471017469,406.165732387"/>
         <ellipse
             style="stroke-width:0.908842381627"
             id="6F86D010"
             cx="280.726188542"
             cy="531.511228696"
             rx="19.7582244981"
             ry="49.1195679591"/>
         <path
             id="2CD23510"
             d="M86.4997478156,481.704102886 C93.9987214206,461.922092136 115.003018305,439.353840847 133.414157983,431.296502787 C151.825297661,423.239164728 160.671356085,432.743889905 153.172382481,452.525900655 C145.673408877,472.307911406 124.669111993,494.876162695 106.257972314,502.933500754
C87.8468326356,510.990838814 79.0007742116,501.486113637 86.4997478156,481.704102886"/>
         <path
             style="stroke-width:0.909809552447"
             id="BCD56610"
             d="M413.000700168,426.989461319 C432.916615742,436.663619058 456.360636398,461.853252984 465.364385897,483.252083413 C474.368135397,504.650913842 465.522076973,514.15563902 445.606161399,504.481481281 C425.690245826,494.807323542 402.24622517,469.617689616 393.24247567,448.218859187
C384.23872617,426.820028758 393.084784595,417.315303581 413.000700168,426.989461319"/>
      </g>
      <g
          id="9D2A7C10">
         <path
             style="fill:none;stroke-width:26.1746599001;stroke-miterlimit:1"
             id="19CA4810"
             d="M426.22635425,176.88161224 C353.399441676,74.9581484058 227.04636042,64.7982405396 144.008859376,154.188832778 C137.985439541,160.673098019 132.284911639,167.595791809 126.938110665,174.919485459"/>
         <ellipse
             style="stroke-width:0.908842381627"
             id="29CA4810"
             cx="278.882799695"
             cy="49.57398915"
             rx="19.7582244981"
             ry="49.1195679591"/>
         <path
             id="39CA4810"
             d="M463.909380924,99.3811121002 C456.41040732,119.16312285 435.406110436,141.731374139 416.994970757,149.788712199 C398.583831079,157.846050259 389.737772655,148.341325081 397.236746259,128.559314331 C404.735719863,108.777303581 425.740016748,86.209052292 444.151156426,78.1517142322
C462.562296104,70.0943761723 471.408354528,79.5991013497 463.909380924,99.3811121002"/>
         <path
             style="stroke-width:0.90640123155"
             id="49CA4810"
             d="M137.408408459,154.095721251 C117.492492886,144.421563513 94.0484722296,119.231929587 85.0447227296,97.8330991582 C76.0409732301,76.4342687287 84.8870316546,66.9295435513 104.802947228,76.6037012899 C124.718862802,86.2778590286 148.162883458,111.467492954 157.166632957,132.866323383
C166.170382457,154.265153813 157.324324033,163.76987899 137.408408459,154.095721251"/>
      </g>
      <path
          style="stroke:none"
          id="10C19230"
          d="M0,211.167919253 L39.4659521327,211.167919253 L39.4659521327,270.858993208 L83.9984792012,270.858993208 L83.9984792012,211.167919253 L123.464431333,211.167919253 L123.464431333,371.522020324 L83.9984792012,371.522020324
L83.9984792012,307.915211918 L39.4659521327,307.915211918 L39.4659521327,371.522020324 L0,371.522020324 z M156.619386616,211.167919253 L253.062084958,211.167919253 L253.062084958,246.696046471 L196.085338749,246.696046471
L196.085338749,271.814050391 L244.795567957,271.814050391 L244.795567957,307.342177608 L196.085338749,307.342177608 L196.085338749,335.993893107 L255.284266948,335.993893107 L255.284266948,371.522020324
L156.619386616,371.522020324 z M284.26152009,211.167919253 L323.727472223,211.167919253 L323.727472223,335.993893107 L380.170894754,335.993893107 L380.170894754,371.522020324 L284.17263281,371.522020324
L284.17263281,211.167919253 z M405.948205832,211.167919253 L446.836389993,211.167919253 L470.213744522,277.735404927 L478.480261522,303.903971749 L479.369134318,303.903971749 L487.635651319,277.735404927
L510.124133052,211.167919253 L551.012281658,211.167919253 L551.012281658,371.522020324 L514.301835192,371.522020324 L514.301835192,324.151184034 C514.301835192,320.044438146 514.479609751,315.555669385 514.83515887,310.589372032
C515.190707988,305.623074679 515.635144386,300.561271607 516.079580784,295.403962818 C516.524017182,290.246654028 517.057340859,285.184850957 517.679551816,280.218553604 C518.301762773,275.252256251 518.835086451,270.858993208 519.279522849,266.943258756
L518.390650053,266.943258756 L506.035318191,304.477006059 L485.413469329,358.533242632 L470.747068199,358.533242632 L450.125219337,304.477006059 L438.214323874,266.943258756 L437.325451078,266.943258756
C437.769887476,270.858993208 438.303211153,275.347761969 438.92542211,280.218553604 C439.547633067,285.184850957 440.080956745,290.246654028 440.525393143,295.403962818 C440.969829541,300.561271607 441.414265939,305.623074679 441.769815057,310.589372032
C442.125364175,315.555669385 442.303138734,320.044438146 442.303138734,324.151184034 L442.303138734,371.522020324 L406.037093112,371.522020324 L406.037093112,211.167919253 z"/>
   </g>
</svg>
