<?xml version="1.0" encoding="UTF-8" standalone="no"?>
<svg
   xmlns:dc="http://purl.org/dc/elements/1.1/"
   xmlns:cc="http://creativecommons.org/ns#"
   xmlns:rdf="http://www.w3.org/1999/02/22-rdf-syntax-ns#"
   xmlns:svg="http://www.w3.org/2000/svg"
   xmlns="http://www.w3.org/2000/svg"
   xmlns:sodipodi="http://sodipodi.sourceforge.net/DTD/sodipodi-0.dtd"
   xmlns:inkscape="http://www.inkscape.org/namespaces/inkscape"
   id="Layer_2"
   data-name="Layer 2"
   viewBox="0 0 24 24"
   version="1.1"
   sodipodi:docname="network_route.svg"
   inkscape:version="0.92.1 r15371">
  <metadata
     id="metadata21">
    <rdf:RDF>
      <cc:Work
         rdf:about="">
        <dc:format>image/svg+xml</dc:format>
        <dc:type
           rdf:resource="http://purl.org/dc/dcmitype/StillImage" />
        <dc:title>network_file_system</dc:title>
      </cc:Work>
    </rdf:RDF>
  </metadata>
  <defs
     id="defs19" />
  <sodipodi:namedview
     pagecolor="#ffffff"
     bordercolor="#666666"
     borderopacity="1"
     objecttolerance="10"
     gridtolerance="10"
     guidetolerance="10"
     inkscape:pageopacity="0"
     inkscape:pageshadow="2"
     inkscape:window-width="1386"
     inkscape:window-height="836"
     id="namedview17"
     showgrid="false"
     inkscape:zoom="20.29"
     inkscape:cx="12.73928"
     inkscape:cy="12"
     inkscape:window-x="2275"
     inkscape:window-y="519"
     inkscape:window-maximized="0"
     inkscape:current-layer="Layer_2" />
  <title
     id="title10">network_file_system</title>
  <polygon
     id="polygon3735"
     points="22,18 16,18 16,17 20,17 13,17 13,15 11,15 11,17 8,17 8,18 2,18 2,20 8,20 8,21 16,21 16,20 22,20 "
     transform="translate(0.1458363,2.2743014)" />
  <path
     id="path28"
     d="m 12.21484,0.84080826 c -4.377368,0 -7.9220846,3.55264654 -7.9220846,7.93001464 0,4.3773691 3.5447166,7.9300151 7.9220846,7.9300151 4.385297,0 7.937944,-3.552646 7.937944,-7.9300151 0,-4.3773681 -3.552647,-7.93001464 -7.937944,-7.93001464 z M 17.710339,5.598817 H 15.370985 C 15.117225,4.6075652 14.752444,3.6559634 14.276643,2.7757318 15.735766,3.2753227 16.949058,4.2903646 17.710339,5.598817 Z M 12.22277,2.4585312 c 0.658191,0.9516018 1.173642,2.0062937 1.514632,3.1402858 H 10.708137 C 11.049128,4.4648249 11.564578,3.410133 12.22277,2.4585312 Z M 6.0849388,10.356827 C 5.9580586,9.8493052 5.8787584,9.3179939 5.8787584,8.7708229 c 0,-0.547171 0.0793,-1.078482 0.2061804,-1.5860029 h 2.6803449 c -0.06344,0.5233809 -0.1110202,1.0467619 -0.1110202,1.5860029 0,0.539241 0.04758,1.0626223 0.1110202,1.5860041 z M 6.7352,11.94283 h 2.3393543 c 0.2537605,0.991251 0.6185412,1.942853 1.0943417,2.823085 C 8.7097736,14.266324 7.4964814,13.259212 6.7352,11.94283 Z M 9.0745543,5.598817 H 6.7352 C 7.4964814,4.2824346 8.7097736,3.2753227 10.168896,2.7757318 9.6930955,3.6559634 9.3283148,4.6075652 9.0745543,5.598817 Z M 12.22277,15.083115 C 11.564578,14.131514 11.049128,13.076822 10.708137,11.94283 h 3.029265 c -0.34099,1.133992 -0.856441,2.188684 -1.514632,3.140285 z m 1.855623,-4.726288 h -3.711247 c -0.07137,-0.5233818 -0.12688,-1.0467631 -0.12688,-1.5860041 0,-0.539241 0.05551,-1.070552 0.12688,-1.5860029 h 3.711247 c 0.07137,0.5154509 0.12688,1.0467619 0.12688,1.5860029 0,0.539241 -0.05551,1.0626223 -0.12688,1.5860041 z m 0.19825,4.409088 c 0.475801,-0.880232 0.840582,-1.831834 1.094342,-2.823085 h 2.339354 c -0.761281,1.308452 -1.974573,2.323494 -3.433696,2.823085 z m 1.403613,-4.409088 c 0.06344,-0.5233818 0.11102,-1.0467631 0.11102,-1.5860041 0,-0.539241 -0.04758,-1.062622 -0.11102,-1.5860029 h 2.680345 c 0.12688,0.5075209 0.20618,1.0388319 0.20618,1.5860029 0,0.547171 -0.0793,1.0784823 -0.20618,1.5860041 z"
     inkscape:connector-curvature="0"
     style="stroke-width:0.79300147" />
</svg>
