<?xml version="1.0" encoding="UTF-8" standalone="no"?>
<svg
   xmlns:dc="http://purl.org/dc/elements/1.1/"
   xmlns:cc="http://creativecommons.org/ns#"
   xmlns:rdf="http://www.w3.org/1999/02/22-rdf-syntax-ns#"
   xmlns:svg="http://www.w3.org/2000/svg"
   xmlns="http://www.w3.org/2000/svg"
   xmlns:sodipodi="http://sodipodi.sourceforge.net/DTD/sodipodi-0.dtd"
   xmlns:inkscape="http://www.inkscape.org/namespaces/inkscape"
   id="Layer_2"
   data-name="Layer 2"
   viewBox="0 0 24 24"
   version="1.1"
   sodipodi:docname="network_route.svg"
   inkscape:version="0.92.1 r15371">
  <metadata
     id="metadata21">
    <rdf:RDF>
      <cc:Work
         rdf:about="">
        <dc:format>image/svg+xml</dc:format>
        <dc:type
           rdf:resource="http://purl.org/dc/dcmitype/StillImage" />
        <dc:title>network_file_system</dc:title>
      </cc:Work>
    </rdf:RDF>
  </metadata>
  <defs
     id="defs19" />
  <sodipodi:namedview
     pagecolor="#ffffff"
     bordercolor="#666666"
     borderopacity="1"
     objecttolerance="10"
     gridtolerance="10"
     guidetolerance="10"
     inkscape:pageopacity="0"
     inkscape:pageshadow="2"
     inkscape:window-width="2156"
     inkscape:window-height="1256"
     id="namedview17"
     showgrid="false"
     inkscape:zoom="20.29"
     inkscape:cx="12"
     inkscape:cy="12"
     inkscape:window-x="2130"
     inkscape:window-y="86"
     inkscape:window-maximized="0"
     inkscape:current-layer="Layer_2" />
  <title
     id="title10">network_file_system</title>
  <path
     d="m 12.139032,0.72485309 c -4.4474095,0 -8.0530091,3.60560021 -8.0530091,8.05300781 0,4.4474061 3.6055996,8.0530071 8.0530091,8.0530071 4.447407,0 8.053006,-3.605601 8.053006,-8.0530071 0,-4.4474076 -3.605599,-8.05300781 -8.053006,-8.05300781 z m 4.55639,10.73734291 c 0.143881,-0.678601 0.234612,-1.399076 0.26414,-2.1474685 h 2.138342 c -0.05585,0.7414135 -0.228705,1.4613505 -0.514856,2.1474685 z M 7.5826388,6.0935255 C 7.4387591,6.7721246 7.3480279,7.4926009 7.3185007,8.2409931 H 5.1801582 C 5.2359946,7.4995799 5.4088644,6.7796418 5.6950136,6.0935255 Z m 8.0132792,0 c 0.16106,0.6871894 0.258234,1.4065914 0.28991,2.1474676 h -3.20993 V 6.0935255 Z M 12.675898,5.0197899 V 1.8769703 c 0.244811,0.071401 0.487476,0.1905877 0.725308,0.358627 0.446136,0.3146045 0.872409,0.7988586 1.233721,1.4006866 0.249642,0.4160721 0.465464,0.8793881 0.645851,1.3840431 h -2.60488 z M 9.643136,3.6357468 C 10.004447,3.0339187 10.430719,2.5496647 10.876857,2.2350602 11.114689,2.0670208 11.357352,1.9478366 11.602164,1.8764334 V 5.0192528 H 8.9972846 C 9.1776716,4.5145978 9.3934926,4.0512819 9.643136,3.6352097 Z m 1.959028,2.4577787 V 8.2409931 H 8.392235 C 8.4239131,7.5001169 8.5210826,6.7807149 8.6821429,6.0935255 Z M 5.6950136,11.462196 C 5.4088644,10.776078 5.2365293,10.056141 5.1801582,9.3147275 h 2.1383425 c 0.02953,0.7483925 0.1202584,1.4688675 0.2641381,2.1474685 z M 8.392235,9.3147275 h 3.209929 V 11.462196 H 8.6821429 C 8.5210826,10.775006 8.4239095,10.055604 8.392235,9.3147275 Z m 3.209929,3.2212015 V 15.67875 C 11.357352,15.607345 11.114689,15.488162 10.876857,15.320122 10.430719,15.005519 10.004447,14.521265 9.643136,13.919437 9.3934926,13.503364 9.1776716,13.040049 8.9972846,12.535392 h 2.6048794 z m 3.032763,1.384043 c -0.361312,0.601829 -0.787585,1.086084 -1.233721,1.400688 -0.237832,0.167502 -0.480497,0.287223 -0.725308,0.358627 v -3.14282 h 2.60488 c -0.180387,0.504654 -0.396209,0.967434 -0.645851,1.384043 z M 12.675898,11.462196 V 9.3147275 h 3.20993 c -0.03167,0.7408765 -0.12885,1.4602785 -0.28991,2.1474685 z m 4.2842,-3.2212029 C 16.930569,7.4926009 16.839841,6.7721246 16.69596,6.0935255 h 1.887625 c 0.28615,0.6861163 0.459021,1.4060544 0.514855,2.1474676 z m 1.061923,-3.2212032 h -1.60899 C 16.100574,4.0341024 15.668397,3.1692093 15.149246,2.4793344 c 0.713496,0.3414486 1.359884,0.7988587 1.924668,1.3636432 0.360238,0.3602371 0.67699,0.7537611 0.948107,1.1768123 z M 7.2041482,3.8429776 C 7.7689318,3.2781931 8.4153203,2.820783 9.1288166,2.4793344 8.6096665,3.1692093 8.1780251,4.0341024 7.8650306,5.0197899 H 6.2560398 C 6.5266209,4.5967387 6.8433729,4.2032147 7.2041482,3.8429776 Z M 6.2560398,12.535929 h 1.6089908 c 0.3129945,0.98569 0.7446359,1.850582 1.263786,2.540457 C 8.4153203,14.734937 7.7689318,14.277527 7.2041482,13.712743 6.84391,13.352506 6.5271581,12.958981 6.2560398,12.535929 Z m 10.8178742,1.176814 c -0.564784,0.564784 -1.211172,1.022194 -1.924668,1.363643 0.519151,-0.689875 0.950791,-1.554767 1.263785,-2.540457 h 1.60899 c -0.270581,0.423052 -0.587333,0.816577 -0.948107,1.176814 z"
     id="path25"
     inkscape:connector-curvature="0"
     style="stroke-width:0.53686714" />
  <polygon
     id="polygon3735"
     points="22,20 22,18 16,18 16,17 20,17 13,17 13,15 11,15 11,17 8,17 8,18 2,18 2,20 8,20 8,21 16,21 16,20 "
     transform="translate(0.1458363,2.3235868)" />
</svg>
