<?xml version="1.0" encoding="UTF-8" standalone="no"?>
<!-- Generated by IcoMoon.io -->

<svg
   xmlns:dc="http://purl.org/dc/elements/1.1/"
   xmlns:cc="http://creativecommons.org/ns#"
   xmlns:rdf="http://www.w3.org/1999/02/22-rdf-syntax-ns#"
   xmlns:svg="http://www.w3.org/2000/svg"
   xmlns="http://www.w3.org/2000/svg"
   xmlns:sodipodi="http://sodipodi.sourceforge.net/DTD/sodipodi-0.dtd"
   xmlns:inkscape="http://www.inkscape.org/namespaces/inkscape"
   version="1.1"
   width="32"
   height="32"
   viewBox="0 0 32 32"
   id="svg27"
   sodipodi:docname="sphere.svg"
   inkscape:version="0.92.1 r15371">
  <metadata
     id="metadata33">
    <rdf:RDF>
      <cc:Work
         rdf:about="">
        <dc:format>image/svg+xml</dc:format>
        <dc:type
           rdf:resource="http://purl.org/dc/dcmitype/StillImage" />
      </cc:Work>
    </rdf:RDF>
  </metadata>
  <defs
     id="defs31" />
  <sodipodi:namedview
     pagecolor="#ffffff"
     bordercolor="#666666"
     borderopacity="1"
     objecttolerance="10"
     gridtolerance="10"
     guidetolerance="10"
     inkscape:pageopacity="0"
     inkscape:pageshadow="2"
     inkscape:window-width="1312"
     inkscape:window-height="915"
     id="namedview29"
     showgrid="false"
     inkscape:zoom="7.375"
     inkscape:cx="12.474576"
     inkscape:cy="16"
     inkscape:window-x="2187"
     inkscape:window-y="312"
     inkscape:window-maximized="0"
     inkscape:current-layer="svg27" />
  <title
     id="title23">sphere</title>
  <path
     d="m 16.050849,1.0508476 c -8.2840014,0 -15.0000014,6.716 -15.0000014,15.0000014 0,8.284 6.716,15 15.0000014,15 8.284,0 15,-6.716 15,-15 0,-8.2840014 -6.716,-15.0000014 -15,-15.0000014 z m 8.487,20.0000014 c 0.268,-1.264 0.437,-2.606 0.492,-4 h 3.983 c -0.104,1.381 -0.426,2.722 -0.959,4 z m -16.9740014,-10 c -0.268,1.264 -0.437,2.606 -0.492,4 h -3.983 c 0.104,-1.381 0.426,-2.722 0.959,-4 z m 14.9260014,0 c 0.3,1.28 0.481,2.62 0.54,4 h -5.979 v -4 z m -5.439,-2.0000014 v -5.854 c 0.456,0.133 0.908,0.355 1.351,0.668 0.831,0.586 1.625,1.488 2.298,2.609 0.465,0.775 0.867,1.638 1.203,2.578 h -4.852 z m -5.649,-2.578 c 0.673,-1.121 1.467,-2.023 2.298,-2.609 0.443,-0.313 0.895,-0.535 1.351,-0.668 v 5.854 h -4.852 c 0.336,-0.94 0.738,-1.803 1.203,-2.578 z m 3.649,4.5780014 v 4 H 9.0718476 c 0.059,-1.38 0.2400002,-2.72 0.5400008,-4 z m -11.0030014,10 c -0.533,-1.278 -0.854,-2.619 -0.959,-4 h 3.983 c 0.055,1.394 0.224,2.736 0.492,4 z m 5.024,-4 h 5.9790014 v 4 H 9.6118484 c -0.3000006,-1.28 -0.4810008,-2.62 -0.5400008,-4 z m 5.9790014,6 v 5.854 c -0.456,-0.133 -0.908,-0.355 -1.351,-0.668 -0.831,-0.586 -1.625,-1.488 -2.298,-2.609 -0.465,-0.775 -0.867,-1.638 -1.203,-2.578 h 4.852 z m 5.649,2.578 c -0.673,1.121 -1.467,2.023 -2.298,2.609 -0.443,0.312 -0.895,0.535 -1.351,0.668 v -5.854 h 4.852 c -0.336,0.94 -0.738,1.802 -1.203,2.578 z m -3.649,-4.578 v -4 h 5.979 c -0.059,1.38 -0.24,2.72 -0.54,4 z m 7.98,-6 c -0.055,-1.394 -0.224,-2.736 -0.492,-4 h 3.516 c 0.533,1.278 0.855,2.619 0.959,4 z m 1.978,-6.0000014 h -2.997 c -0.582,-1.836 -1.387,-3.447 -2.354,-4.732 1.329,0.636 2.533,1.488 3.585,2.54 0.671,0.671 1.261,1.404 1.766,2.192 z m -20.1500014,-2.192 c 1.052,-1.052 2.256,-1.904 3.5850014,-2.54 -0.9670008,1.285 -1.7710014,2.896 -2.3540014,4.732 h -2.997 c 0.504,-0.788 1.094,-1.521 1.766,-2.192 z m -1.766,16.1920014 h 2.997 c 0.583,1.836 1.3870006,3.447 2.3540014,4.732 -1.3290014,-0.636 -2.5330014,-1.488 -3.5850014,-2.54 -0.671,-0.671 -1.261,-1.404 -1.766,-2.192 z m 20.1500014,2.192 c -1.052,1.052 -2.256,1.904 -3.585,2.54 0.967,-1.285 1.771,-2.896 2.354,-4.732 h 2.997 c -0.504,0.788 -1.094,1.521 -1.766,2.192 z"
     id="path25"
     inkscape:connector-curvature="0" />
</svg>
